<svg width="20" height="20" viewBox="0 0 20 20" fill="none" xmlns="http://www.w3.org/2000/svg">
<g id="copy-image 1">
<path id="Vector" d="M7.5 6.2474C7.5 5.55573 8.05833 4.9974 8.75 4.9974C9.44167 4.9974 10 5.55573 10 6.2474C10 6.93906 9.44167 7.4974 8.75 7.4974C8.05833 7.4974 7.5 6.93906 7.5 6.2474ZM20 5.83073V10.8307C20 13.1307 18.1333 14.9974 15.8333 14.9974H8.33333C6.03333 14.9974 4.16667 13.1307 4.16667 10.8307V5.83073C4.16667 3.53073 6.03333 1.66406 8.33333 1.66406H15.8333C18.1333 1.66406 20 3.53073 20 5.83073ZM5.83333 10.8307C5.83333 11.4724 6.075 12.0557 6.475 12.5057L10.8417 8.13906C11.6583 7.3224 13.0833 7.3224 13.9 8.13906L14.7667 9.00573C14.9583 9.1974 15.2833 9.1974 15.475 9.00573L18.3333 6.1474V5.83073C18.3333 4.45573 17.2083 3.33073 15.8333 3.33073H8.33333C6.95833 3.33073 5.83333 4.45573 5.83333 5.83073V10.8307ZM18.3333 10.8307V8.50573L16.65 10.1891C15.8333 11.0057 14.4083 11.0057 13.5917 10.1891L12.725 9.3224C12.5333 9.13073 12.2167 9.13073 12.0167 9.3224L8.025 13.3141C8.125 13.3307 8.225 13.3307 8.33333 13.3307H15.8333C17.2083 13.3307 18.3333 12.2057 18.3333 10.8307ZM14.1667 16.6641H4.16667C2.79167 16.6641 1.66667 15.5391 1.66667 14.1641V9.16406C1.66667 8.5474 1.89167 7.95573 2.30833 7.4974C2.61667 7.15573 2.58333 6.63073 2.24167 6.3224C1.9 6.01406 1.375 6.0474 1.06667 6.38906C0.383333 7.15573 0 8.13906 0 9.1724V14.1724C0 16.4724 1.86667 18.3391 4.16667 18.3391H14.1667C14.625 18.3391 15 17.9641 15 17.5057C15 17.0474 14.625 16.6724 14.1667 16.6724V16.6641Z" fill="#878787"/>
</g>
</svg>
