<?xml version="1.0" encoding="UTF-8"?>
<svg version="1.1" xmlns="http://www.w3.org/2000/svg" width="75" height="75">
<path d="M0 0 C1.07701172 0.0002417 1.07701172 0.0002417 2.17578125 0.00048828 C4.36017289 -0.00387662 6.54252975 -0.04016326 8.7265625 -0.078125 C10.1171806 -0.08399495 11.50780829 -0.08796315 12.8984375 -0.08984375 C14.16349121 -0.09806152 15.42854492 -0.1062793 16.73193359 -0.11474609 C20.56539692 0.45514723 21.70472252 1.31003138 24 4.37109375 C24.96263636 7.25900283 25.136966 9.126379 25.16113281 12.13037109 C25.17074036 13.09502289 25.1803479 14.05967468 25.19024658 15.05355835 C25.19449646 16.09420441 25.19874634 17.13485046 25.203125 18.20703125 C25.20882507 19.27853424 25.21452515 20.35003723 25.22039795 21.45401001 C25.22984738 23.72193413 25.2363817 25.98987197 25.24023438 28.2578125 C25.24994236 31.72550413 25.28096784 35.19260369 25.3125 38.66015625 C25.3190299 40.86327773 25.32428042 43.06640345 25.328125 45.26953125 C25.3404718 46.30612885 25.3528186 47.34272644 25.36553955 48.41073608 C25.337431 57.50479627 25.337431 57.50479627 22 61.37109375 C17.27358532 64.52203687 12.22063701 63.74304801 6.65820312 63.74169922 C4.63846 63.74606466 2.62091791 63.78236951 0.6015625 63.8203125 C-0.6771875 63.82417969 -1.9559375 63.82804687 -3.2734375 63.83203125 C-5.02793213 63.84435791 -5.02793213 63.84435791 -6.81787109 63.85693359 C-10.6525938 63.27145729 -12.290261 62.10183369 -15 59.37109375 C-15.96263636 56.48318467 -16.136966 54.6158085 -16.16113281 51.61181641 C-16.17074036 50.64716461 -16.1803479 49.68251282 -16.19024658 48.68862915 C-16.19449646 47.64798309 -16.19874634 46.60733704 -16.203125 45.53515625 C-16.20882507 44.46365326 -16.21452515 43.39215027 -16.22039795 42.28817749 C-16.22984738 40.02025337 -16.2363817 37.75231553 -16.24023438 35.484375 C-16.24994236 32.01668337 -16.28096784 28.54958381 -16.3125 25.08203125 C-16.3190299 22.87890977 -16.32428042 20.67578405 -16.328125 18.47265625 C-16.3404718 17.43605865 -16.3528186 16.39946106 -16.36553955 15.33145142 C-16.32661166 2.73697152 -11.97815957 0.08480938 0 0 Z M-9 8.37109375 C-9.09822744 9.83914667 -9.1279837 11.31186835 -9.12939453 12.78320312 C-9.13254669 13.72087524 -9.13569885 14.65854736 -9.13894653 15.62463379 C-9.1369223 16.64440308 -9.13489807 17.66417236 -9.1328125 18.71484375 C-9.13376923 19.75427124 -9.13472595 20.79369873 -9.13571167 21.86462402 C-9.13639363 24.06713929 -9.13453827 26.26965654 -9.13037109 28.47216797 C-9.12502308 31.85649094 -9.13031559 35.24068119 -9.13671875 38.625 C-9.13605797 40.75911488 -9.13477681 42.89322967 -9.1328125 45.02734375 C-9.13483673 46.04711304 -9.13686096 47.06688232 -9.13894653 48.11755371 C-9.13579437 49.05522583 -9.13264221 49.99289795 -9.12939453 50.95898438 C-9.12859894 51.78869751 -9.12780334 52.61841064 -9.12698364 53.4732666 C-9.20842552 55.38210899 -9.20842552 55.38210899 -8 56.37109375 C-6.15840977 56.47068996 -4.31303033 56.50189786 -2.46875 56.50390625 C-0.78845703 56.50583984 -0.78845703 56.50583984 0.92578125 56.5078125 C2.69501953 56.50201172 2.69501953 56.50201172 4.5 56.49609375 C5.67949219 56.49996094 6.85898437 56.50382812 8.07421875 56.5078125 C9.19441406 56.50652344 10.31460938 56.50523438 11.46875 56.50390625 C13.02239258 56.50221436 13.02239258 56.50221436 14.60742188 56.50048828 C16.95297823 56.64074528 16.95297823 56.64074528 18 55.37109375 C18.09822744 53.90304083 18.1279837 52.43031915 18.12939453 50.95898438 C18.13254669 50.02131226 18.13569885 49.08364014 18.13894653 48.11755371 C18.1369223 47.09778442 18.13489807 46.07801514 18.1328125 45.02734375 C18.13376923 43.98791626 18.13472595 42.94848877 18.13571167 41.87756348 C18.13639363 39.67504821 18.13453827 37.47253096 18.13037109 35.27001953 C18.12502308 31.88569656 18.13031559 28.50150631 18.13671875 25.1171875 C18.13605797 22.98307262 18.13477681 20.84895783 18.1328125 18.71484375 C18.13483673 17.69507446 18.13686096 16.67530518 18.13894653 15.62463379 C18.13579437 14.68696167 18.13264221 13.74928955 18.12939453 12.78320312 C18.12859894 11.95348999 18.12780334 11.12377686 18.12698364 10.2689209 C18.20842552 8.36007851 18.20842552 8.36007851 17 7.37109375 C15.15840977 7.27149754 13.31303033 7.24028964 11.46875 7.23828125 C9.78845703 7.23634766 9.78845703 7.23634766 8.07421875 7.234375 C6.30498047 7.24017578 6.30498047 7.24017578 4.5 7.24609375 C3.32050781 7.24222656 2.14101563 7.23835937 0.92578125 7.234375 C-0.19441406 7.23566406 -1.31460937 7.23695312 -2.46875 7.23828125 C-4.02239258 7.23997314 -4.02239258 7.23997314 -5.60742188 7.24169922 C-7.95297823 7.10144222 -7.95297823 7.10144222 -9 8.37109375 Z " fill="#000000" transform="translate(33,5.62890625)"/>
<path d="M0 0 C2.5 0.25 2.5 0.25 4.5 2.25 C4.75 4.75 4.75 4.75 4.5 7.25 C2.5 9.25 2.5 9.25 0 9.5 C-2.5 9.25 -2.5 9.25 -4.5 7.25 C-4.75 4.75 -4.75 4.75 -4.5 2.25 C-2.5 0.25 -2.5 0.25 0 0 Z " fill="#000000" transform="translate(37.5,50.75)"/>
</svg>
