<?xml version="1.0" encoding="UTF-8"?>
<svg version="1.1" xmlns="http://www.w3.org/2000/svg" width="11" height="16">
<path d="M0 0 C3.5 0.125 3.5 0.125 4.5 1.125 C4.59873816 3.12299572 4.62971799 5.12457158 4.625 7.125 C4.62757812 8.218125 4.63015625 9.31125 4.6328125 10.4375 C4.5 13.125 4.5 13.125 3.5 14.125 C0 14.25 0 14.25 -3.5 14.125 C-4.5 13.125 -4.5 13.125 -4.6328125 10.4375 C-4.63023437 9.344375 -4.62765625 8.25125 -4.625 7.125 C-4.62757813 6.031875 -4.63015625 4.93875 -4.6328125 3.8125 C-4.43248143 -0.24125818 -4.18897343 0.14960619 0 0 Z M-2.5 2.125 C-2.5 5.425 -2.5 8.725 -2.5 12.125 C-1.51 11.465 -0.52 10.805 0.5 10.125 C1.16 10.785 1.82 11.445 2.5 12.125 C2.5 8.825 2.5 5.525 2.5 2.125 C0.85 2.125 -0.8 2.125 -2.5 2.125 Z " fill="#000000" transform="translate(5.5,0.875)"/>
</svg>
