<svg width="18" height="18" viewBox="0 0 18 18" fill="none" xmlns="http://www.w3.org/2000/svg">
<g id="border_color">
<mask id="mask0_1065_865" style="mask-type:alpha" maskUnits="userSpaceOnUse" x="0" y="0" width="18" height="18">
<rect id="Bounding box" width="18" height="18" fill="#D9D9D9"/>
</mask>
<g mask="url(#mask0_1065_865)">
<path id="border_color_2" d="M1.5 16.8738V14.9988H16.5L16.5 16.8738H1.5ZM3 13.4988V10.6863L9.7875 3.89881L12.6 6.71131L5.8125 13.4988H3ZM4.5 11.9988H5.175L10.5 6.71131L9.7875 5.99881L4.5 11.3238V11.9988ZM13.4438 5.88631L10.6313 3.07381L11.9813 1.72381C12.1188 1.57381 12.2938 1.50194 12.5063 1.50819C12.7188 1.51444 12.8938 1.58631 13.0312 1.72381L14.7938 3.48631C14.9313 3.62381 15 3.79569 15 4.00194C15 4.20819 14.9313 4.38631 14.7938 4.53631L13.4438 5.88631Z" fill="#262626"/>
</g>
</g>
</svg>
