<svg width="18" height="18" viewBox="0 0 18 18" fill="none" xmlns="http://www.w3.org/2000/svg">
<g id="visibility">
<mask id="mask0_1065_862" style="mask-type:alpha" maskUnits="userSpaceOnUse" x="0" y="0" width="18" height="18">
<rect id="Bounding box" width="18" height="18" fill="#D9D9D9"/>
</mask>
<g mask="url(#mask0_1065_862)">
<path id="visibility_2" d="M8.25 12C9.1875 12 9.98438 11.6719 10.6406 11.0156C11.2969 10.3594 11.625 9.5625 11.625 8.625C11.625 7.6875 11.2969 6.89062 10.6406 6.23438C9.98438 5.57812 9.1875 5.25 8.25 5.25C7.3125 5.25 6.51562 5.57812 5.85938 6.23438C5.20312 6.89062 4.875 7.6875 4.875 8.625C4.875 9.5625 5.20312 10.3594 5.85938 11.0156C6.51562 11.6719 7.3125 12 8.25 12ZM8.25 10.65C7.6875 10.65 7.20938 10.4531 6.81563 10.0594C6.42188 9.66563 6.225 9.1875 6.225 8.625C6.225 8.0625 6.42188 7.58437 6.81563 7.19063C7.20938 6.79688 7.6875 6.6 8.25 6.6C8.8125 6.6 9.29063 6.79688 9.68438 7.19063C10.0781 7.58437 10.275 8.0625 10.275 8.625C10.275 9.1875 10.0781 9.66563 9.68438 10.0594C9.29063 10.4531 8.8125 10.65 8.25 10.65ZM8.25 14.25C6.425 14.25 4.7625 13.7406 3.2625 12.7219C1.7625 11.7031 0.675 10.3375 0 8.625C0.675 6.9125 1.7625 5.54688 3.2625 4.52813C4.7625 3.50938 6.425 3 8.25 3C10.075 3 11.7375 3.50938 13.2375 4.52813C14.7375 5.54688 15.825 6.9125 16.5 8.625C15.825 10.3375 14.7375 11.7031 13.2375 12.7219C11.7375 13.7406 10.075 14.25 8.25 14.25ZM8.25 12.75C9.6625 12.75 10.9594 12.3781 12.1406 11.6344C13.3219 10.8906 14.225 9.8875 14.85 8.625C14.225 7.3625 13.3219 6.35938 12.1406 5.61562C10.9594 4.87187 9.6625 4.5 8.25 4.5C6.8375 4.5 5.54063 4.87187 4.35938 5.61562C3.17812 6.35938 2.275 7.3625 1.65 8.625C2.275 9.8875 3.17812 10.8906 4.35938 11.6344C5.54063 12.3781 6.8375 12.75 8.25 12.75Z" fill="#262626"/>
</g>
</g>
</svg>
