<svg width="42" height="42" viewBox="0 0 42 42" fill="none" xmlns="http://www.w3.org/2000/svg">
<g id="Group 33757">
<rect id="Rectangle 9097" x="0.5" y="0.5" width="41" height="41" rx="3.5" stroke="black" stroke-opacity="0.23"/>
<g id="filter_alt">
<mask id="mask0_2_7335" style="mask-type:alpha" maskUnits="userSpaceOnUse" x="9" y="9" width="24" height="24">
<rect id="Bounding box" x="9" y="9" width="24" height="24" fill="#D9D9D9"/>
</mask>
<g mask="url(#mask0_2_7335)">
<path id="filter_alt_2" d="M20.0001 29C19.7167 29 19.4792 28.9042 19.2876 28.7125C19.0959 28.5208 19.0001 28.2833 19.0001 28V22L13.2001 14.6C12.9501 14.2667 12.9126 13.9167 13.0876 13.55C13.2626 13.1833 13.5667 13 14.0001 13H28.0001C28.4334 13 28.7376 13.1833 28.9126 13.55C29.0876 13.9167 29.0501 14.2667 28.8001 14.6L23.0001 22V28C23.0001 28.2833 22.9042 28.5208 22.7126 28.7125C22.5209 28.9042 22.2834 29 22.0001 29H20.0001ZM21.0001 21.3L25.9501 15H16.0501L21.0001 21.3Z" fill="#1C1B1F" fill-opacity="0.86"/>
</g>
</g>
</g>
</svg>
