<svg width="20" height="20" viewBox="0 0 20 20" fill="none" xmlns="http://www.w3.org/2000/svg">
<g id="notification" clip-path="url(#clip0_1290_1638)">
<path id="Vector" d="M19.3832 13.4995L17.2165 5.69032C16.7538 4.01984 15.7457 2.55211 14.3526 1.52073C12.9594 0.489353 11.2613 -0.0464043 9.52855 -0.00127122C7.79577 0.0438618 6.12787 0.667291 4.79031 1.7698C3.45276 2.8723 2.5224 4.39052 2.14733 6.08282L0.471495 13.6245C0.390406 13.9899 0.392384 14.3688 0.477283 14.7333C0.562182 15.0978 0.727837 15.4386 0.962024 15.7305C1.19621 16.0224 1.49296 16.2581 1.83036 16.42C2.16777 16.5819 2.53724 16.6661 2.91149 16.6662H5.91733C6.10859 17.6081 6.6196 18.4549 7.36378 19.0631C8.10796 19.6714 9.03953 20.0037 10.0007 20.0037C10.9618 20.0037 11.8934 19.6714 12.6375 19.0631C13.3817 18.4549 13.8927 17.6081 14.084 16.6662H16.9757C17.3608 16.666 17.7406 16.5768 18.0856 16.4057C18.4305 16.2346 18.7313 15.986 18.9644 15.6795C19.1975 15.373 19.3567 15.0168 19.4295 14.6386C19.5022 14.2605 19.4859 13.8706 19.3832 13.4995ZM10.0007 18.3328C9.48544 18.3307 8.98347 18.1694 8.56341 17.8711C8.14335 17.5727 7.82573 17.1519 7.65399 16.6662H12.3473C12.1756 17.1519 11.858 17.5727 11.4379 17.8711C11.0179 18.1694 10.5159 18.3307 10.0007 18.3328ZM17.6382 14.6703C17.5604 14.7734 17.4596 14.8568 17.3439 14.914C17.2281 14.9712 17.1006 15.0004 16.9715 14.9995H2.91149C2.78671 14.9995 2.66353 14.9714 2.55103 14.9174C2.43854 14.8634 2.33961 14.7849 2.26154 14.6875C2.18347 14.5902 2.12826 14.4765 2.09998 14.355C2.07171 14.2335 2.07108 14.1071 2.09816 13.9853L3.77399 6.44366C4.06929 5.1155 4.80008 3.92416 5.85021 3.05903C6.90033 2.1939 8.20951 1.70463 9.56964 1.669C10.9298 1.63337 12.2628 2.05342 13.3567 2.86238C14.4507 3.67134 15.2429 4.82278 15.6073 6.13366L17.774 13.9428C17.8094 14.0663 17.8155 14.1963 17.7919 14.3226C17.7684 14.4489 17.7157 14.5679 17.6382 14.6703Z" fill="#878787"/>
</g>
<defs>
<clipPath id="clip0_1290_1638">
<rect width="20" height="20" fill="white"/>
</clipPath>
</defs>
</svg>
