<svg width="21" height="21" viewBox="0 0 21 21" fill="none" xmlns="http://www.w3.org/2000/svg">
<g id="forum">
<mask id="mask0_1213_4322" style="mask-type:alpha" maskUnits="userSpaceOnUse" x="0" y="0" width="21" height="21">
<rect id="Bounding box" x="0.844727" y="0.390625" width="20" height="20" fill="#D9D9D9"/>
</mask>
<g mask="url(#mask0_1213_4322)">
<path id="forum_2" d="M6.67741 15.3919C6.4413 15.3919 6.24338 15.3121 6.08366 15.1523C5.92394 14.9926 5.84407 14.7947 5.84407 14.5586V12.8919H16.6774V5.39193H18.3441C18.5802 5.39193 18.7781 5.47179 18.9378 5.63151C19.0975 5.79123 19.1774 5.98915 19.1774 6.22526V18.7253L15.8441 15.3919H6.67741ZM2.51074 14.5586V2.89193C2.51074 2.65582 2.5906 2.4579 2.75033 2.29818C2.91005 2.13845 3.10796 2.05859 3.34408 2.05859H14.1774C14.4135 2.05859 14.6114 2.13845 14.7712 2.29818C14.9309 2.4579 15.0107 2.65582 15.0107 2.89193V10.3919C15.0107 10.628 14.9309 10.826 14.7712 10.9857C14.6114 11.1454 14.4135 11.2253 14.1774 11.2253H5.84407L2.51074 14.5586ZM13.3441 9.55859V3.72526H4.17741V9.55859H13.3441Z" fill="#878787"/>
</g>
</g>
</svg>
