<svg width="20" height="20" viewBox="0 0 20 20" fill="none" xmlns="http://www.w3.org/2000/svg">
<g id="comment-dots 1" clip-path="url(#clip0_1213_4338)">
<path id="Vector" d="M11.2502 9.99887C11.2502 10.6889 10.6902 11.2489 10.0002 11.2489C9.31017 11.2489 8.75017 10.6889 8.75017 9.99887C8.75017 9.30887 9.31017 8.74887 10.0002 8.74887C10.6902 8.74887 11.2502 9.30887 11.2502 9.99887ZM14.1668 8.74887C13.4768 8.74887 12.9168 9.30887 12.9168 9.99887C12.9168 10.6889 13.4768 11.2489 14.1668 11.2489C14.8568 11.2489 15.4168 10.6889 15.4168 9.99887C15.4168 9.30887 14.8568 8.74887 14.1668 8.74887ZM5.83351 8.74887C5.14351 8.74887 4.58351 9.30887 4.58351 9.99887C4.58351 10.6889 5.14351 11.2489 5.83351 11.2489C6.52351 11.2489 7.08351 10.6889 7.08351 9.99887C7.08351 9.30887 6.52351 8.74887 5.83351 8.74887ZM20.0002 10.2822V15.8322C20.0002 18.1297 18.131 19.9989 15.8335 19.9989H10.9027C5.06851 19.9989 0.391839 16.0055 0.0251724 10.7105C-0.175661 7.81387 0.881006 4.97887 2.92434 2.93303C4.96767 0.8872 7.80267 -0.1728 10.6968 0.0230331C15.9135 0.3772 20.0002 4.88303 20.0002 10.2822ZM18.3335 10.2822C18.3335 5.75637 14.9302 1.98053 10.5843 1.68553C10.3935 1.6722 10.2027 1.66637 10.0127 1.66637C7.79934 1.66637 5.67184 2.5397 4.10351 4.11053C2.40017 5.81553 1.51934 8.1797 1.68767 10.5955C1.99851 15.0789 5.87434 18.333 10.9035 18.333H15.8343C17.2127 18.333 18.3343 17.2114 18.3343 15.833V10.283L18.3335 10.2822Z" fill="#878787"/>
</g>
<defs>
<clipPath id="clip0_1213_4338">
<rect width="20" height="20" fill="white"/>
</clipPath>
</defs>
</svg>
