<svg width="20" height="20" viewBox="0 0 20 20" fill="none" xmlns="http://www.w3.org/2000/svg">
<mask id="mask0_2_8630" style="mask-type:alpha" maskUnits="userSpaceOnUse" x="0" y="0" width="20" height="20">
<rect width="20" height="20" fill="#D9D9D9"/>
</mask>
<g mask="url(#mask0_2_8630)">
<path d="M5 16.4575C3.55556 16.0825 2.36111 15.3047 1.41667 14.1242C0.472222 12.9436 0 11.5686 0 9.99919C0 8.42974 0.472222 7.05474 1.41667 5.87419C2.36111 4.69363 3.55556 3.91585 5 3.54085V5.29085C4.01389 5.62419 3.21181 6.22141 2.59375 7.08252C1.97569 7.94363 1.66667 8.91585 1.66667 9.99919C1.66667 11.0825 1.97569 12.0547 2.59375 12.9159C3.21181 13.777 4.01389 14.3742 5 14.7075V16.4575ZM11.6667 16.6659C9.81944 16.6659 8.24653 16.0165 6.94792 14.7179C5.64931 13.4193 5 11.8464 5 9.99919C5 8.15196 5.64931 6.57905 6.94792 5.28044C8.24653 3.98183 9.81944 3.33252 11.6667 3.33252C12.5833 3.33252 13.4444 3.50613 14.25 3.85335C15.0556 4.20057 15.7639 4.67974 16.375 5.29085L15.2083 6.45752C14.75 5.99919 14.2187 5.64155 13.6146 5.3846C13.0104 5.12766 12.3611 4.99919 11.6667 4.99919C10.2778 4.99919 9.09722 5.4853 8.125 6.45752C7.15278 7.42974 6.66667 8.6103 6.66667 9.99919C6.66667 11.3881 7.15278 12.5686 8.125 13.5409C9.09722 14.5131 10.2778 14.9992 11.6667 14.9992C12.3611 14.9992 13.0104 14.8707 13.6146 14.6138C14.2187 14.3568 14.75 13.9992 15.2083 13.5409L16.375 14.7075C15.7639 15.3186 15.0556 15.7978 14.25 16.145C13.4444 16.4922 12.5833 16.6659 11.6667 16.6659ZM16.6667 13.3325L15.5 12.1659L16.8333 10.8325H10.8333V9.16585H16.8333L15.5 7.83252L16.6667 6.66585L20 9.99919L16.6667 13.3325Z" fill="#878787"/>
</g>
</svg>
