<svg width="20" height="20" viewBox="0 0 20 20" fill="none" xmlns="http://www.w3.org/2000/svg">
<g id="credit-card 2">
<path id="analytics" d="M5.23817 15H7.32992V10H5.23817V15ZM13.6051 15H15.6969V5H13.6051V15ZM9.42166 15H11.5134V12H9.42166V15ZM9.42166 10H11.5134V8H9.42166V10ZM3.14643 19C2.5712 19 2.07877 18.8042 1.66914 18.4125C1.2595 18.0208 1.05469 17.55 1.05469 17V3C1.05469 2.45 1.2595 1.97917 1.66914 1.5875C2.07877 1.19583 2.5712 1 3.14643 1H17.7886C18.3639 1 18.8563 1.19583 19.2659 1.5875C19.6756 1.97917 19.8804 2.45 19.8804 3V17C19.8804 17.55 19.6756 18.0208 19.2659 18.4125C18.8563 18.8042 18.3639 19 17.7886 19H3.14643ZM3.14643 17H17.7886V3H3.14643V17Z" fill="#878787"/>
</g>
</svg>
