<svg width="28" height="28" viewBox="0 0 28 28" fill="none" xmlns="http://www.w3.org/2000/svg">
<g id="users-alt 1">
<g id="Vector" filter="url(#filter0_d_1290_1773)">
<path d="M14 13.3333C13.3407 13.3333 12.6963 13.1378 12.1481 12.7716C11.5999 12.4053 11.1727 11.8847 10.9204 11.2756C10.6681 10.6665 10.6021 9.99631 10.7307 9.3497C10.8593 8.7031 11.1768 8.10915 11.643 7.64298C12.1092 7.1768 12.7031 6.85934 13.3497 6.73072C13.9963 6.6021 14.6665 6.66811 15.2756 6.9204C15.8847 7.1727 16.4053 7.59994 16.7716 8.1481C17.1378 8.69627 17.3333 9.34073 17.3333 10C17.3333 10.8841 16.9821 11.7319 16.357 12.357C15.7319 12.9821 14.8841 13.3333 14 13.3333ZM8.73583 13.3333H4.83333C4.61232 13.3333 4.40036 13.2455 4.24408 13.0893C4.0878 12.933 4 12.721 4 12.5C4.0079 11.3034 4.4431 10.149 5.22713 9.24507C6.01116 8.34109 7.09239 7.74702 8.27583 7.57C8.41335 7.55074 8.5535 7.56614 8.68355 7.61481C8.81361 7.66349 8.92943 7.74389 9.02051 7.84871C9.11159 7.95353 9.17502 8.07945 9.20506 8.21502C9.2351 8.35059 9.23078 8.49152 9.1925 8.625C9.0648 9.07217 9.00001 9.53495 9 10C9.00024 10.7415 9.16713 11.4734 9.48833 12.1417C9.54875 12.2685 9.57611 12.4086 9.56788 12.5488C9.55965 12.6891 9.51609 12.825 9.44125 12.9439C9.36642 13.0628 9.26273 13.1608 9.13984 13.2289C9.01694 13.297 8.87883 13.3329 8.73833 13.3333H8.73583ZM18.1667 20H9.83333C9.61232 20 9.40036 19.9122 9.24408 19.7559C9.0878 19.5996 9 19.3877 9 19.1667C9 17.8406 9.52678 16.5688 10.4645 15.6311C11.4021 14.6935 12.6739 14.1667 14 14.1667C15.3261 14.1667 16.5979 14.6935 17.5355 15.6311C18.4732 16.5688 19 17.8406 19 19.1667C19 19.3877 18.9122 19.5996 18.7559 19.7559C18.5996 19.9122 18.3877 20 18.1667 20ZM19 6.66667C18.3407 6.66667 17.6963 6.47117 17.1481 6.1049C16.5999 5.73863 16.1727 5.21803 15.9204 4.60895C15.6681 3.99986 15.6021 3.32964 15.7307 2.68303C15.8593 2.03643 16.1768 1.44249 16.643 0.976312C17.1092 0.510137 17.7031 0.192668 18.3497 0.0640506C18.9963 -0.0645668 19.6665 0.00144427 20.2756 0.253736C20.8847 0.506029 21.4053 0.93327 21.7716 1.48143C22.1378 2.0296 22.3333 2.67406 22.3333 3.33334C22.3333 4.21739 21.9821 5.06524 21.357 5.69036C20.7319 6.31548 19.8841 6.66667 19 6.66667ZM9 6.66667C8.34073 6.66667 7.69626 6.47117 7.1481 6.1049C6.59994 5.73863 6.17269 5.21803 5.9204 4.60895C5.66811 3.99986 5.6021 3.32964 5.73072 2.68303C5.85933 2.03643 6.1768 1.44249 6.64298 0.976312C7.10915 0.510137 7.7031 0.192668 8.3497 0.0640506C8.9963 -0.0645668 9.66652 0.00144427 10.2756 0.253736C10.8847 0.506029 11.4053 0.93327 11.7716 1.48143C12.1378 2.0296 12.3333 2.67406 12.3333 3.33334C12.3333 4.21739 11.9821 5.06524 11.357 5.69036C10.7319 6.31548 9.88405 6.66667 9 6.66667ZM23.1667 13.3333H19.2642C19.1237 13.3329 18.9856 13.297 18.8627 13.2289C18.7398 13.1608 18.6361 13.0628 18.5612 12.9439C18.4864 12.825 18.4429 12.6891 18.4346 12.5488C18.4264 12.4086 18.4538 12.2685 18.5142 12.1417C18.8345 11.4732 19.0005 10.7413 19 10C18.9986 9.53476 18.9324 9.07197 18.8033 8.625C18.7648 8.49114 18.7605 8.34977 18.7907 8.2138C18.821 8.07783 18.8848 7.95161 18.9764 7.84667C19.068 7.74174 19.1844 7.66143 19.315 7.6131C19.4457 7.56477 19.5863 7.54995 19.7242 7.57C20.9076 7.74702 21.9888 8.34109 22.7729 9.24507C23.5569 10.149 23.9921 11.3034 24 12.5C24 12.721 23.9122 12.933 23.7559 13.0893C23.5996 13.2455 23.3877 13.3333 23.1667 13.3333Z" fill="#3D5A80"/>
</g>
</g>
<defs>
<filter id="filter0_d_1290_1773" x="0" y="0" width="28" height="28" filterUnits="userSpaceOnUse" color-interpolation-filters="sRGB">
<feFlood flood-opacity="0" result="BackgroundImageFix"/>
<feColorMatrix in="SourceAlpha" type="matrix" values="0 0 0 0 0 0 0 0 0 0 0 0 0 0 0 0 0 0 127 0" result="hardAlpha"/>
<feOffset dy="4"/>
<feGaussianBlur stdDeviation="2"/>
<feComposite in2="hardAlpha" operator="out"/>
<feColorMatrix type="matrix" values="0 0 0 0 0.239216 0 0 0 0 0.352941 0 0 0 0 0.501961 0 0 0 0.16 0"/>
<feBlend mode="normal" in2="BackgroundImageFix" result="effect1_dropShadow_1290_1773"/>
<feBlend mode="normal" in="SourceGraphic" in2="effect1_dropShadow_1290_1773" result="shape"/>
</filter>
</defs>
</svg>
